<?xml version="1.0" standalone="no"?><!DOCTYPE svg PUBLIC "-//W3C//DTD SVG 1.1//EN" "http://www.w3.org/Graphics/SVG/1.1/DTD/svg11.dtd"><svg class="icon" width="200px" height="200.00px" viewBox="0 0 1024 1024" version="1.1" xmlns="http://www.w3.org/2000/svg"><path fill="#ffffff" d="M760.608 975.072a100.032 100.032 0 0 1-99.648-100.192v-132.16l-90.176-90.752V285.216c0-130.272 105.312-236.224 234.976-236.224 30.048 0 54.496 24.64 54.496 54.816V874.88c-0.032 55.2-44.736 100.192-99.648 100.192z m-451.232 0a100.032 100.032 0 0 1-99.648-100.192V515.776l-38.016-40.352c-18.88-16.608-29.664-41.632-29.664-70.016V81.088c0-18.912 13.312-32.128 32.32-32.128 18.56 0 32.032 13.504 32.032 32.128v326.752c0 9.344 3.744 17.952 10.72 25.024l56.768 57.152v384.672c0 19.808 15.968 35.936 35.616 35.936s35.68-16.128 35.68-35.936V490.272l15.712-18.496 41.056-41.344a35.52 35.52 0 0 0 10.656-25.024V81.088c0-18.624 13.536-32.128 32-32.128 18.912 0 32.096 13.216 32.096 32.128v326.624c0 25.856-10.624 50.784-29.888 70.176l-37.856 38.016V874.88c0.032 55.2-44.64 100.192-99.584 100.192z m325.312-348.928l90.272 90.656v158.176c0 19.872 15.968 35.968 35.616 35.968s35.68-16.096 35.68-35.968V113.536c-89.952 4.928-161.6 80.064-161.6 171.68v340.928zM354.496 294.656c-18.88 0-32.064-13.216-32.064-32.128v-181.44c0-18.624 13.504-32.128 32.064-32.128 18.496 0 32 13.504 32 32.128v181.44c0 18.592-13.504 32.128-32 32.128z m-90.272 0c-18.816 0-32-13.216-32-32.128v-181.44c0-18.624 13.536-32.128 32-32.128 18.56 0 32.096 13.504 32.096 32.128v181.44c0 18.592-13.536 32.128-32.096 32.128z"  /></svg>