<?xml version="1.0" standalone="no"?><!DOCTYPE svg PUBLIC "-//W3C//DTD SVG 1.1//EN" "http://www.w3.org/Graphics/SVG/1.1/DTD/svg11.dtd"><svg class="icon" width="200px" height="200.00px" viewBox="0 0 1024 1024" version="1.1" xmlns="http://www.w3.org/2000/svg"><path fill="#6190E8" d="M568.38996 77.580675c-16.529988-1.939999-33.149976-2.899998-49.779965-2.899998-240.909828 0-438.449687 201.829856-447.709681 456.099675l19.709986-29.599979C36.350339 524.060356 0.000365 579.850317 0.000365 642.760272c0 84.14994 64.369954 152.359891 143.809897 152.359891 3.959997 0 7.929994-0.18 11.859992-0.529999l-2.559998-33.099977-27.469981 15.979989C203.77022 928.250068 353.240113 1024 518.609995 1024c163.279884 0 311.149778-93.349933 390.139722-241.079828l-26.959981 16.829988c78.789944-0.919999 142.199899-68.809951 142.199899-152.329892 0.25-54.659961-27.71998-105.299925-73.359948-132.809905l15.989989 28.52998c-0.949999-97.74993-30.739978-192.869863-85.379939-272.619806-9.749993-14.47999-28.999979-18.049987-42.99997-7.949994-0.27 0.2-0.54 0.39-0.799999 0.599999-14.03999 10.999992-17.099988 31.559978-6.899995 46.429967 46.969967 68.569951 72.559948 150.349893 73.349948 234.389833l0.239999 19.129987 15.749989 9.409993c25.759982 15.489989 41.54997 44.059969 41.409971 74.889946 0 47.099966-35.769974 85.359939-80.189943 85.919939l-18.039987 0.18-8.879994 16.619988C786.199805 877.330105 659.069895 957.560047 518.609995 957.560047c-142.229899 0-270.769807-82.319941-338.009759-212.049848l-9.809993-18.879987-20.229985 1.769999c-2.249998 0.19-4.509997 0.29-6.759996 0.28-44.789968 0-81.109942-38.469973-81.109942-85.919939 0-35.499975 20.499985-66.929952 51.109964-79.839943l18.959986-7.989995 0.79-21.569984c7.959994-218.659844 177.869873-392.23972 385.049725-392.239721 14.51999 0 28.799979 0.809999 42.83997 2.479999 17.319988 1.859999 32.819977-11.169992 34.619975-29.09998 0.01-0.08 0.02-0.17 0.02-0.249999 2.049999-18.009987-10.289993-34.369975-27.66998-36.669974h-0.02z m158.149887 599.439572c-1.959999 4.159997-4.029997 8.269994-6.219996 12.299992-42.42997 78.599944-121.289914 128.109909-208.309851 128.109908-91.769935 0-174.249876-55.089961-214.599847-140.5199-7.349995-16.019989-25.849982-22.839984-41.329971-15.239989-0.26 0.13-0.51 0.26-0.759999 0.39-15.599989 8.479994-21.809984 28.27998-14.00999 44.619968 50.909964 107.669923 154.93989 177.149874 270.699807 177.149874 109.739922 0 209.229851-62.439955 262.739813-161.519885 2.799998-5.159996 5.469996-10.429993 7.959994-15.729989 7.739994-16.359988 1.459999-36.129974-14.13999-44.549968-15.299989-7.979994-33.949976-1.609999-41.65997 14.22999-0.13 0.25-0.25 0.5-0.37 0.759999zM661.119894 66.410683c21.829984 0.39 42.70997 9.549993 58.599958 26.169981 33.589976 35.149975 33.889976 92.459934 0.679999 128.069909-32.059977 34.759975-85.289939 36.039974-118.879915 2.859998-0.7-0.69-1.389999-1.399999-2.069998-2.119999-11.929991-12.589991-31.469978-12.779991-43.629969-0.43-0.23 0.24-0.46 0.47-0.68 0.72-12.159991 13.169991-12.039991 33.939976 0.27 46.959966 56.32996 59.539958 148.629894 60.559957 206.159853 2.269999 1.159999-1.169999 2.289998-2.359998 3.409998-3.569998 57.569959-61.629956 57.059959-161.099885-1.199999-222.049841C736.95984 16.990718 700.489866 0.730729 662.209893 0.00073c-17.509988-0.12-31.799977 14.47999-31.909977 32.599977-0.5 18.139987 13.289991 33.269976 30.819978 33.809976z m104.199925 413.449705c26.929981 27.36998 27.319981 72.139949 0.88 100.009929s-69.70995 28.26998-96.629931 0.909999c-26.929981-27.36998-27.319981-72.139949-0.88-100.009929 12.859991-13.54999 30.449978-21.179985 48.799966-21.169985 18.589987 0 35.459975 7.709995 47.829965 20.229986v0.03z m-409.989707 0c26.929981 27.36998 27.319981 72.139949 0.879999 100.009929-26.439981 27.86998-69.70995 28.26998-96.629931 0.909999-26.929981-27.36998-27.319981-72.139949-0.879999-100.009929 12.859991-13.54999 30.449978-21.179985 48.799965-21.169985 18.589987 0 35.459975 7.709995 47.829966 20.229986v0.03z" /></svg>