<?xml version="1.0" standalone="no"?><!DOCTYPE svg PUBLIC "-//W3C//DTD SVG 1.1//EN" "http://www.w3.org/Graphics/SVG/1.1/DTD/svg11.dtd"><svg class="icon" width="200px" height="197.87px" viewBox="0 0 1035 1024" version="1.1" xmlns="http://www.w3.org/2000/svg"><path fill="#ffffff" d="M1019.263116 491.103064c0-47.076178-26.330692-87.998193-65.065901-108.854197L954.197214 187.939393c0-28.731368-23.291472-52.021817-52.022841-52.021817l-68.046792 0c-0.00921 0-0.016373-0.001023-0.024559-0.001023s-0.017396 0.001023-0.025583 0.001023c-7.261381 0.007163-13.81975 2.996241-18.533099 7.801686l-0.034792-0.033769c-11.768021 11.768021-28.025287 19.045775-45.982264 19.045775-17.955954 0-34.213219-7.277754-45.982264-19.045775-2.728134-2.728134-5.592368-5.319146-8.576329-7.767917-20.194948-16.567327-46.027289-26.513864-74.189699-26.513864-28.160363 0-53.994752 9.945513-74.189699 26.513864-2.986007 2.449795-5.850242 5.039783-8.579399 7.767917l0 0c-11.766998 11.766998-28.024264 19.045775-45.981241 19.045775-17.955954 0-34.213219-7.277754-45.982264-19.045775l0 0c-2.728134-2.728134-5.592368-5.319146-8.578376-7.767917-20.194948-16.566304-46.028313-26.51284-74.188676-26.51284-28.15934 0-53.993728 9.946536-74.187653 26.51284-2.986007 2.449795-5.850242 5.04183-8.579399 7.769964-11.766998 11.766998-28.024264 19.046798-45.982264 19.046798-17.956977 0-34.213219-7.278777-45.980217-19.045775l-0.008186 0.008186c-4.104481-4.245697-9.631358-7.099698-15.821337-7.780197-0.942465-0.103354-1.898233-0.166799-2.869351-0.166799s-1.926886 0.063445-2.869351 0.166799l-65.203024 0c-28.731368 0-52.021817 23.291472-52.021817 52.021817L69.756737 382.248867c-38.73521 20.856004-65.064878 61.779042-65.064878 108.854197 0 0.227174 0.005117 0.452301 0.00921 0.678452 0 0.116657-0.00921 0.232291-0.00921 0.348947l0 325.162708c0 28.730345 23.291472 52.021817 52.021817 52.021817l13.043061 0 0 33.80185c0 28.731368 23.291472 52.022841 52.021817 52.022841l780.39582 0c28.731368 0 52.022841-23.291472 52.022841-52.022841l0-33.80185 13.043061 0c28.732391 0 52.022841-23.291472 52.022841-52.021817L1019.263116 492.130464c0-0.112564-0.008186-0.224104-0.00921-0.337691C1019.257999 491.563552 1019.263116 491.333308 1019.263116 491.103064zM121.779577 213.897601c0-14.366196 11.645225-26.01142 26.01142-26.01142l32.118512 0c20.25737 16.781198 46.261627 26.870997 74.622558 26.870997s54.364165-10.088776 74.622558-26.870997c2.829442-2.344395 5.548366-4.817726 8.144494-7.413853 11.768021-11.766998 28.025287-19.045775 45.982264-19.045775s34.213219 7.277754 45.982264 19.045775l0 0c2.597151 2.597151 5.316076 5.069459 8.146541 7.413853 20.25737 16.780175 46.25958 26.866904 74.619488 26.866904s54.363142-10.086729 74.619488-26.866904c2.831488-2.344395 5.551436-4.818749 8.147564-7.4159l0.001023 0.001023c11.769045-11.768021 28.02631-19.045775 45.982264-19.045775 17.956977 0 34.214243 7.277754 45.982264 19.045775 2.598174 2.597151 5.317099 5.070482 8.146541 7.414877 20.258393 16.781198 46.258557 26.866904 74.619488 26.866904s54.365188-10.085706 74.619488-26.866904l32.018228 0c14.365172 0 26.010397 11.645225 26.010397 26.01142L902.17642 367.717919c-2.140757-0.110517-4.295839-0.167822-6.464225-0.167822-68.236104 0-123.552967 55.316863-123.552967 123.552967 0 0.342808 0.011256 0.684592 0.013303 1.027399l-0.164752 0 0 31.883151c0 14.367219-11.644201 26.010397-26.01142 26.010397L277.961686 550.024012c-14.366196 0-26.01142-11.644201-26.01142-26.010397l0-31.883151-0.165776 0c0.00307-0.342808 0.013303-0.684592 0.013303-1.027399 0-68.236104-55.316863-123.552967-123.552967-123.552967-2.168386 0-4.323469 0.057305-6.465249 0.167822L121.779577 213.897601zM902.174374 877.159654c0 14.365172-11.645225 26.01142-26.010397 26.01142L147.790998 903.171074c-14.366196 0-26.01142-11.646248-26.01142-26.01142l0-7.844665 780.39582 0L902.175397 877.159654zM967.202413 791.281751c0 14.366196-11.644201 26.01142-26.010397 26.01142L82.762959 817.293171c-14.366196 0-26.01142-11.645225-26.01142-26.01142L56.751538 518.141884l0-29.750581c1.427512-38.246069 32.865525-68.819388 71.462588-68.819388 39.504736 0 71.530127 32.026414 71.530127 71.53115 0 0.343831-0.021489 0.684592-0.025583 1.027399l0.170892 0 0 57.893548c0 28.731368 23.291472 52.022841 52.021817 52.022841l520.131191 0c28.731368 0 52.022841-23.291472 52.022841-52.022841l0-57.893548 0.10847 0c-0.005117-0.342808-0.024559-0.682545-0.024559-1.027399 0-39.504736 32.024367-71.53115 71.530127-71.53115 39.404452 0 71.360258 31.864732 71.522963 71.229275l0 0.608867c-0.00614 0.239454-0.014326 0.479931-0.01842 0.719384l0.01842 0 0 26.01142L967.202413 791.281751z" /></svg>