<?xml version="1.0" standalone="no"?><!DOCTYPE svg PUBLIC "-//W3C//DTD SVG 1.1//EN" "http://www.w3.org/Graphics/SVG/1.1/DTD/svg11.dtd"><svg class="icon" width="200px" height="200.00px" viewBox="0 0 1024 1024" version="1.1" xmlns="http://www.w3.org/2000/svg"><path fill="#ffffff" d="M951.959375 606.0003125c0-1.2-0.1190625-2.28-0.1996875-3.440625a71.840625 71.840625 0 0 0-20.559375-43.9996875L463.0803125 86.0403125a47.5996875 47.5996875 0 0 0-33.7603125-14.04H144.9996875a72.6 72.6 0 0 0-72.999375 72.1996875v291.7996875c0 3.1603125 0.279375 6.200625 0.879375 9.12l0.48 2.240625c0.6 2.2396875 1.280625 4.3996875 2.16 6.48a46.4803125 46.4803125 0 0 0 10.280625 15.1996875L319.559375 699.92l233.76 230.9596875a74.175 74.175 0 0 0 17.7196875 12.920625 73.959375 73.959375 0 0 0 85.6003125-12.920625l273.999375-270.879375a76.08 76.08 0 0 0 9.96-12.320625 66.2803125 66.2803125 0 0 0 5.28-9.879375c0.4003125-0.8803125 0.800625-1.760625 1.08-2.64 3.800625-9.4003125 5.360625-19.280625 5.000625-29.2003125z m-70.479375 3.399375v0.200625l-0.0796875 0.1996875-0.200625 0.1996875L607.1196875 880.68125a2.3203125 2.3203125 0 0 1-0.879375 0.5596875 4.959375 4.959375 0 0 1-1.280625 0.1996875 3.2803125 3.2803125 0 0 1-1.44-0.279375l-0.6796875-0.48L369.08 649.71875 142.4 425.84V144.1203125c0-0.6 0.8803125-1.760625 2.559375-1.760625h274.640625l461.3596875 465.6 0.2803125 0.2803125c0.12 0.0796875 0.12 0.1996875 0.1996875 0.2803125 0 0.12 0.12 0.1996875 0.12 0.3196875v0.0796875c0 0.12 0 0.2803125-0.12 0.48zM198.92 272.6a69.6796875 69.6796875 0 1 0 139.32 0 69.6796875 69.6796875 0 0 0-139.32 0z" /></svg>