<?xml version="1.0" standalone="no"?><!DOCTYPE svg PUBLIC "-//W3C//DTD SVG 1.1//EN" "http://www.w3.org/Graphics/SVG/1.1/DTD/svg11.dtd"><svg class="icon" width="200px" height="188.76px" viewBox="0 0 1085 1024" version="1.1" xmlns="http://www.w3.org/2000/svg"><path fill="#ffffff" d="M934.249412 1024H131.112157c-71.961098 0-130.509804-58.548706-130.509804-130.509804V471.843137c0-71.961098 58.548706-130.509804 130.509804-130.509804h803.137255c71.961098 0 130.509804 58.548706 130.509804 130.509804v421.647059c0 71.961098-58.548706 130.509804-130.509804 130.509804zM131.112157 401.568627c-38.751373 0-70.27451 31.523137-70.27451 70.27451v421.647059c0 38.741333 31.523137 70.27451 70.27451 70.27451h803.137255c38.741333 0 70.27451-31.533176 70.27451-70.27451V471.843137c0-38.751373-31.533176-70.27451-70.27451-70.27451H131.112157z"  /><path fill="#ffffff" d="M542.72 1024H131.112157c-71.961098 0-130.509804-58.548706-130.509804-130.509804V471.843137c0-71.961098 58.548706-130.509804 130.509804-130.509804h411.607843v682.666667zM131.112157 401.568627c-38.751373 0-70.27451 31.523137-70.27451 70.27451v421.647059c0 38.741333 31.523137 70.27451 70.27451 70.27451h351.372549V401.568627H131.112157z"  /><path fill="#ffffff" d="M30.72 547.137255h481.882353v60.235294H30.72zM30.72 757.960784h481.882353v60.235294H30.72zM954.327843 281.098039H643.112157c-27.678118 0-50.196078-22.517961-50.196079-50.196078V50.196078c0-27.678118 22.517961-50.196078 50.196079-50.196078h311.215686c27.678118 0 50.196078 22.517961 50.196079 50.196078v180.705883c0 27.678118-22.517961 50.196078-50.196079 50.196078z m-301.17647-60.235294h291.137254V60.235294H653.151373v160.627451z"  /><path fill="#ffffff" d="M768.602353 250.980392h60.235294v120.470588h-60.235294zM375.697569 401.568627H247.93851A66.700549 66.700549 0 0 1 181.308235 334.938353v-87.612235A66.700549 66.700549 0 0 1 247.93851 180.705882h127.769098A66.700549 66.700549 0 0 1 442.327843 247.336157v87.612235A66.700549 66.700549 0 0 1 375.697569 401.568627zM247.93851 240.941176a6.40502 6.40502 0 0 0-6.394981 6.394981v87.612235c0 3.513725 2.871216 6.384941 6.394981 6.384941h127.769098c3.513725 0 6.384941-2.871216 6.384941-6.39498v-87.612235a6.40502 6.40502 0 0 0-6.39498-6.384942H247.93851z"  /></svg>